<?xml version="1.0" standalone="no"?>
<!DOCTYPE svg PUBLIC "-//W3C//DTD SVG 20010904//EN"
 "http://www.w3.org/TR/2001/REC-SVG-20010904/DTD/svg10.dtd">
<svg version="1.0" xmlns="http://www.w3.org/2000/svg"
 width="312.000000pt" height="312.000000pt" viewBox="0 0 312.000000 312.000000"
 preserveAspectRatio="xMidYMid meet">
<metadata>
Created by potrace 1.14, written by Peter Selinger 2001-2017
</metadata>
<g transform="translate(0.000000,312.000000) scale(0.100000,-0.100000)"
fill="#000000" stroke="none">
<path d="M1548 3046 c-1 -2 -43 -6 -93 -10 -453 -30 -869 -270 -1120 -646
-379 -568 -336 -1286 108 -1802 60 -69 245 -238 261 -238 2 0 30 -18 62 -39
177 -117 392 -193 644 -226 51 -6 264 -7 296 -1 12 2 45 7 75 11 110 13 286
67 417 127 84 39 223 129 311 203 334 278 531 697 532 1130 0 297 -81 568
-246 821 -68 105 -87 128 -205 244 -242 240 -586 396 -917 416 -54 3 -103 7
-110 9 -6 2 -13 2 -15 1z m147 -1184 c328 -219 370 -251 377 -279 5 -17 4 -43
-1 -56 -7 -18 -117 -97 -372 -267 -199 -133 -375 -247 -390 -252 -33 -11 -82
10 -100 45 -14 24 -18 950 -5 1000 8 35 59 67 95 61 14 -3 192 -116 396 -252z"/>
</g>
</svg>
